<svg xmlns="http://www.w3.org/2000/svg" width="80.885" height="80.895" viewBox="0 0 80.885 80.895">
  <g id="Calque_1-2" transform="translate(0.03 -0.001)">
    <g id="Groupe_129" data-name="Groupe 129" transform="translate(-0.03 0.001)">
      <g id="Groupe_127" data-name="Groupe 127">
        <path id="Tracé_20" data-name="Tracé 20" d="M18.124,59.494c1.951,6.533-2.019,13.222-6.03,15.225C7.758,76.885,1.037,74.667.148,67.6S1.78,50.959,6.079,49.672,16.168,52.962,18.124,59.494Z" transform="translate(0.03 -23.589)" fill="#2c6363"/>
        <path id="Tracé_21" data-name="Tracé 21" d="M94.991,63.168c-2.725-6.25.408-13.368,4.148-15.837,4.043-2.673,10.983-1.281,12.715,5.628,1.658,6.616.387,16.721-3.724,18.51s-10.413-2.05-13.138-8.3Z" transform="translate(-44.802 -21.97)" fill="#2c6363"/>
        <path id="Tracé_22" data-name="Tracé 22" d="M22,23.332c-3.876-6.339-1.559-14.488,2.108-17.72C28.074,2.123,35.773,2.583,38.676,9.78c2.777,6.893,2.918,17.992-1.25,20.539S25.878,29.665,22,23.326Z" transform="translate(-9.523 -1.669)" fill="#2c6363"/>
        <path id="Tracé_23" data-name="Tracé 23" d="M84.347,19.577c3.677-6.459,1.1-14.53-2.673-17.642C77.6-1.427,69.917-.721,67.244,6.564c-2.558,6.977-2.343,18.076,1.9,20.492s11.522-1.02,15.194-7.479Z" transform="translate(-31.266 -0.001)" fill="#2c6363"/>
        <path id="Tracé_24" data-name="Tracé 24" d="M52.672,84.229a15.837,15.837,0,0,0,4.294,3.923,16.433,16.433,0,0,0,6.7,2.72c4.393.377,10.8,9.629,5.235,14.927s-38.557,6.977-47.59,1.951-3.886-14.744,2.118-16.8,9.017-5.031,10.947-7.688c1.831-2.516,11.988-7.516,18.3.962Z" transform="translate(-7.818 -37.916)" fill="#2c6363"/>
      </g>
      <g id="Groupe_128" data-name="Groupe 128" transform="translate(41.424 32.103)">
        <path id="Tracé_25" data-name="Tracé 25" d="M131.089,74.1l.46-6.815-3.635,5.445c-2.547.8-4.357,2.793-5.685,6.888-1.433,4.425-.528,8.682,2.019,9.5s5.779-2.092,7.212-6.512c1.156-3.572.826-7.071-.377-8.515Z" transform="translate(-99.385 -64.199)" fill="#a8e2e3"/>
        <path id="Tracé_26" data-name="Tracé 26" d="M110.77,68.195l.46-6.815-3.635,5.445c-2.547.8-4.357,2.793-5.685,6.888-1.433,4.425-.528,8.682,2.019,9.5s5.779-2.092,7.212-6.512c1.156-3.572.826-7.071-.377-8.515Z" transform="translate(-89.693 -61.38)" fill="#a8e2e3"/>
        <path id="Tracé_27" data-name="Tracé 27" d="M142.833,95.735c-.026,2.673-2.6,5.167-2.6,5.167-1.778-.968-4.848.256-7.155,2.96-2.495,2.918-3.154,6.449-1.47,7.887s5.068.235,7.563-2.683a8.853,8.853,0,0,0,2.4-5.774c1.726-1.784,1.961-5.2,1.271-7.563Z" transform="translate(-103.739 -77.764)" fill="#a8e2e3"/>
        <path id="Tracé_28" data-name="Tracé 28" d="M88.8,75.49c-1.548,2.181-.926,5.711-.926,5.711,2.008.256,3.776,3.054,4.059,6.6.309,3.829-1.229,7.076-3.436,7.254s-4.242-2.782-4.55-6.606a8.881,8.881,0,0,1,1.444-6.083c-.35-2.458,1.464-5.361,3.4-6.867Z" transform="translate(-81.429 -68.11)" fill="#a8e2e3"/>
        <path id="Tracé_29" data-name="Tracé 29" d="M87.618,115.639a6.148,6.148,0,0,0,4.168-2.924c1.475-2.563,3.337-4.508,8.609-.989a5.067,5.067,0,0,1,1.548,4.979,5.04,5.04,0,0,0,2.176,5.466c1.512.873,2.218.743,2.9,2.913s-.743,5.063-1.491,5.858a10.969,10.969,0,0,1-4.357,2.333,11.873,11.873,0,0,1-3.86-1.25c-.33-.309-3.243-6.009-7.1-5.387s-4.634,1.407-5.194,1.255a17.96,17.96,0,0,1-3.258-.884c-.329-.309-3.949-3.9-2.019-8.091s6.151-3.154,7.877-3.279Z" transform="translate(-79.172 -84.482)" fill="#a8e2e3"/>
      </g>
    </g>
  </g>
</svg>
